<svg width="794" height="206" viewBox="0 0 794 206" fill="none" xmlns="http://www.w3.org/2000/svg">
<g clip-path="url(#clip0_2001_24055)">
<path fill-rule="evenodd" clip-rule="evenodd" d="M149.65 69.54C135.9 75.59 144.85 95.86 157.92 90.8C169.48 86.33 163.09 63.63 149.65 69.54Z" fill="#99B336"/>
<path fill-rule="evenodd" clip-rule="evenodd" d="M79.02 97.82C63.91 101.69 70.29 121.62 83.06 119.29C98.34 116.5 92.09 94.47 79.02 97.82Z" fill="#1D86C1"/>
<path fill-rule="evenodd" clip-rule="evenodd" d="M139.96 42.99C126.82 45.77 132.75 67.3 147.08 64.19C159.43 61.51 154.11 40 139.96 42.99Z" fill="#99B336"/>
<path fill-rule="evenodd" clip-rule="evenodd" d="M111.58 53.47C99.47 59.09 107.27 77.42 120.58 72.79C133.91 68.16 125.19 47.16 111.58 53.47Z" fill="#99B336"/>
<path fill-rule="evenodd" clip-rule="evenodd" d="M158.97 98.18C153.45 100.93 151.15 105.63 153.3 112.53C154.85 117.5 160.67 121.07 166.88 117.98C177.61 112.63 172.32 91.53 158.97 98.18Z" fill="#99B336"/>
<path fill-rule="evenodd" clip-rule="evenodd" d="M134.5 109.21C120.14 113.76 126.6 133.43 139.57 129.27C152.72 125.06 147.5 105.09 134.5 109.21Z" fill="#99B336"/>
<path fill-rule="evenodd" clip-rule="evenodd" d="M49.35 109.44C37.57 115.21 46.21 133.65 58.85 128.11C69.78 123.32 61.56 103.46 49.35 109.44Z" fill="#1D86C1"/>
<path fill-rule="evenodd" clip-rule="evenodd" d="M126.12 21.01C121.07 24.08 119.59 28.25 123.93 33.95C126.62 37.48 132.4 40.16 137.97 37.9C150.27 32.9 138.44 13.53 126.12 21.02V21.01Z" fill="#808080"/>
<path fill-rule="evenodd" clip-rule="evenodd" d="M40.7 82.38C36.79 84.62 32.44 88.66 35.6 96.16C37.32 100.23 42.54 104 48.02 101.41C60.08 95.7 51.98 75.9 40.7 82.38Z" fill="#1D86C1"/>
<path fill-rule="evenodd" clip-rule="evenodd" d="M60.63 44.31C46.32 48.63 51.3 66.96 63.85 63.79C75.23 60.92 74.04 40.26 60.63 44.31Z" fill="#1D86C1"/>
<path fill-rule="evenodd" clip-rule="evenodd" d="M172.53 60.41C160.04 63.96 167.24 86.14 179.6 80.77C188.79 76.77 183.06 57.41 172.53 60.41Z" fill="#808080"/>
<path fill-rule="evenodd" clip-rule="evenodd" d="M59.25 136.92C55.98 141.1 52.57 143.62 56.52 150.28C58.53 153.67 64.04 157.31 69.68 154.91C79.41 150.78 76.37 134.65 59.25 136.92Z" fill="#1D86C1"/>
<path fill-rule="evenodd" clip-rule="evenodd" d="M167.96 125.33C154.81 132.43 160.62 148.89 172.5 144C183.21 139.6 180.11 118.77 167.96 125.33Z" fill="#99B336"/>
<path fill-rule="evenodd" clip-rule="evenodd" d="M160.71 36.36C150 40.39 158.35 60.15 170.3 55.44C180.84 51.28 171.24 32.4 160.71 36.36Z" fill="#808080"/>
<path fill-rule="evenodd" clip-rule="evenodd" d="M99.78 154.97C84.93 160.13 95.1 175.43 106.6 171.33C118.38 167.13 112.32 150.61 99.78 154.97Z" fill="#1D86C1"/>
<path fill-rule="evenodd" clip-rule="evenodd" d="M180.41 87.86C176.14 90.07 173.65 94.24 175.74 101.35C177.1 105.96 182.01 109.64 187.41 106.74C195.53 102.39 192.37 81.68 180.41 87.85V87.86Z" fill="#99B336"/>
<path fill-rule="evenodd" clip-rule="evenodd" d="M36.06 55.96C23.21 59.78 25.7 78.05 37.72 75.2C48 72.76 47.54 52.55 36.06 55.96Z" fill="#1D86C1"/>
<path fill-rule="evenodd" clip-rule="evenodd" d="M23.36 121.66C21.2 138.98 36.99 141.68 39.78 131.65C41.26 126.37 37.98 121.58 34.95 119.52C29.14 115.57 27.45 118.46 23.35 121.65L23.36 121.66Z" fill="#1D86C1"/>
<path fill-rule="evenodd" clip-rule="evenodd" d="M26.12 111.88C28.93 107.68 31.79 107.32 30.24 99.46C27.84 87.3 11.61 91.37 14.63 104.62C16.02 110.73 19.63 112.03 26.12 111.87V111.88Z" fill="#1D86C1"/>
<path fill-rule="evenodd" clip-rule="evenodd" d="M148.8 15.13C141.39 17.98 144.89 24.9 147.31 27.69C149.51 30.22 155.07 33.59 159.91 31.39C169.67 26.97 159 11.21 148.79 15.13H148.8Z" fill="#808080"/>
<path fill-rule="evenodd" clip-rule="evenodd" d="M131.28 12.21C132.96 -2.76 113.92 -2.22 111.48 4.57C109.76 9.34 113.43 13.25 117.15 14.74C124.05 17.49 126.63 15.51 131.29 12.21H131.28Z" fill="#99B336"/>
<path fill-rule="evenodd" clip-rule="evenodd" d="M71.06 163.97C59.85 169.52 72.71 183.08 82.69 177.98C92.16 173.13 81.9 158.6 71.06 163.97Z" fill="#1D86C1"/>
<path fill-rule="evenodd" clip-rule="evenodd" d="M91.12 8.04C80.41 13.13 89.03 26.44 100.99 21.3C112.56 16.33 102.91 2.44 91.12 8.04Z" fill="#99B336"/>
<path fill-rule="evenodd" clip-rule="evenodd" d="M35.9 145.97C27.97 152.13 40.84 167.05 49.2 160.48C56.61 154.65 44.63 139.2 35.9 145.97Z" fill="#1D86C1"/>
<path fill-rule="evenodd" clip-rule="evenodd" d="M184.53 132.29C198.85 134.35 199.12 116.08 193.23 113.42C184.99 109.69 175.54 122.02 184.53 132.29Z" fill="#808080"/>
<path fill-rule="evenodd" clip-rule="evenodd" d="M173.5 149.15C162.53 155.07 163.31 169.46 174.98 164.85C184.51 161.08 185.44 142.71 173.5 149.15Z" fill="#96B237"/>
<path fill-rule="evenodd" clip-rule="evenodd" d="M25.33 50.42C39.36 51.71 42.66 36.24 35.43 33.72C27.64 31 19 41.13 25.33 50.42Z" fill="#1D86C1"/>
<path fill-rule="evenodd" clip-rule="evenodd" d="M102.93 188C114.47 195.55 123.28 187.26 121.44 182.02C120.02 177.97 115.05 176.61 109.85 177.71C103.95 178.96 102.65 181.92 102.93 188Z" fill="#1D86C1"/>
<path fill-rule="evenodd" clip-rule="evenodd" d="M197.63 73.42C201.84 64.37 195.24 50.77 188.22 54.99C183.03 58.11 184.39 75.56 197.63 73.42Z" fill="#808080"/>
<path fill-rule="evenodd" clip-rule="evenodd" d="M158.87 161.64C147.53 158.13 138.82 170.37 145.21 175.26C150.72 179.48 164.26 172.24 158.87 161.64Z" fill="#99B336"/>
<path fill-rule="evenodd" clip-rule="evenodd" d="M11.78 85.66C22.65 87.02 23.68 77.91 21.24 69.48C10 64.2 5.71 77.6 11.78 85.66Z" fill="#1D86C1"/>
<path fill-rule="evenodd" clip-rule="evenodd" d="M202.79 97.96C207.04 92.1 205.95 74.56 196.84 79.41C192.26 81.85 190.56 99.66 202.79 97.96Z" fill="#808080"/>
<path fill-rule="evenodd" clip-rule="evenodd" d="M46.14 170.94C45.48 184.15 60.35 185.95 62.8 180.66C65.85 174.08 55.94 165.97 46.14 170.94Z" fill="#1D86C1"/>
<path fill-rule="evenodd" clip-rule="evenodd" d="M15.92 143.1L18.65 141.36C20.68 133.1 14.87 122.06 8.36 126.33C3.2 129.71 6.81 142.63 15.93 143.1H15.92Z" fill="#1D86C1"/>
<path fill-rule="evenodd" clip-rule="evenodd" d="M78.36 189.16C80.22 197.86 91.1 198.73 96.98 192.59C95.84 183.33 83.18 181.2 78.36 189.16Z" fill="#1D86C1"/>
<path fill-rule="evenodd" clip-rule="evenodd" d="M178.07 32.61C171.66 39.9 180.22 53.04 187.86 50.19C193.6 48.05 186.97 40.93 183.07 36.26C180.48 33.16 181.89 33.33 178.07 32.62V32.61Z" fill="#808080"/>
<path fill-rule="evenodd" clip-rule="evenodd" d="M19.02 150.57C18.96 150.6 12.02 151.22 19.11 160.44C31.84 176.99 34.61 151.71 21.76 149.97C16.58 149.27 20.74 149.66 19.02 150.56V150.57Z" fill="#1D86C1"/>
<path fill-rule="evenodd" clip-rule="evenodd" d="M1.86 102.9C-0.780001 105.28 -0.170001 110.27 0.969999 114.95C3.38 124.86 14.39 118.34 9.92 107.09C8.96 104.67 7.01 102.21 4.92 101.94C-0.160001 101.3 2.91 101.94 1.86 102.89V102.9Z" fill="#1D86C1"/>
<path fill-rule="evenodd" clip-rule="evenodd" d="M197.63 136.39C187 133.76 182.32 148.41 186.39 152.37C187.07 153.03 187.29 153.83 187.98 153.91C193 154.49 198.37 140.68 197.63 136.39Z" fill="#99B336"/>
<path fill-rule="evenodd" clip-rule="evenodd" d="M148.26 189.43C155.01 191.38 166.19 183 162.07 178.95C157.92 174.87 145.7 182.2 148.26 189.43Z" fill="#99B336"/>
<path fill-rule="evenodd" clip-rule="evenodd" d="M110.8 200.91C117.87 203.89 127.89 202.66 127.53 195.22C122.27 192 115.61 193.27 112.87 195.68C109.71 198.45 111.15 195.51 110.81 200.91H110.8Z" fill="#1D86C1"/>
<path fill-rule="evenodd" clip-rule="evenodd" d="M58.52 190.18C59.11 194.85 60.14 194.52 64.95 196.41C67.96 197.6 73.23 200.31 75.04 196.64C77.49 191.65 62.64 185.58 58.52 190.18Z" fill="#1D86C1"/>
<path fill-rule="evenodd" clip-rule="evenodd" d="M202.93 121.68C205.9 117.15 205.71 108.56 205.62 102.84C201.22 104.17 199.59 105.7 198.74 111.03C197.71 117.47 198.51 120.68 202.93 121.68Z" fill="#808080"/>
<path fill-rule="evenodd" clip-rule="evenodd" d="M7.83 62.59C16.29 63.11 20.84 52.81 16.3 46.14C12.97 49.99 8.94 56.67 7.83 62.59Z" fill="#1D86C1"/>
<path fill-rule="evenodd" clip-rule="evenodd" d="M1.59 92.31C7.29 90.57 8.17 81.01 3.79 76.73C2.38 80.72 1.1 87.19 1.59 92.31Z" fill="#1D86C1"/>
<path fill-rule="evenodd" clip-rule="evenodd" d="M167.96 178.77C172.13 178.38 180.71 169.13 181.61 165.32C173.52 165.3 167.43 170.49 167.96 178.77Z" fill="#99B336"/>
<path fill-rule="evenodd" clip-rule="evenodd" d="M149.62 9.56998C145.77 6.29998 138.9 3.85998 133.18 2.66998C135.58 9.70998 144.1 13.47 149.62 9.56998Z" fill="#808080"/>
<path fill-rule="evenodd" clip-rule="evenodd" d="M43.01 183.5C42.8 176.36 36.89 170.73 29.47 172.56C34.02 176.3 36.26 181.09 43.01 183.5Z" fill="#1D86C1"/>
<path fill-rule="evenodd" clip-rule="evenodd" d="M43.38 17.52L45.17 18.33C48.25 18.83 50.06 18.61 53.04 16.6C55.9 14.67 57.42 12.66 58.25 8.59998C55.44 9.24998 53.16 10.63 50.78 12L43.38 17.52Z" fill="#1D86C1"/>
<path fill-rule="evenodd" clip-rule="evenodd" d="M88.34 201.73C91.97 203.99 99.63 203.66 104.78 203.51C103.35 196.73 90.23 198.66 88.34 201.73Z" fill="#1D86C1"/>
<path d="M265.07 197.63C264.04 199.03 263.3 199.77 262.28 200.55C260.35 201.99 257.72 202.89 255.37 202.89C249.21 202.89 243.78 197.38 243.78 191.14C243.78 184.9 249.16 179.3 255.37 179.3C259.19 179.3 262.85 181.23 264.95 184.36H268.03C267.37 182.84 266.26 181.48 264.37 179.96C261.82 177.95 258.7 176.84 255.37 176.84C247.36 176.84 241.03 183.13 241.03 191.1C241.03 199.07 247.44 205.36 255.46 205.36C260.72 205.36 265.57 202.4 268.16 197.63H265.08H265.07ZM272.18 204.86H287.26V202.39H274.93V192.16H286.85V189.69H274.93V179.79H287.26V177.32H272.18V204.86ZM292.19 204.86H294.94V180.61L311.38 204.86H314.13V177.32H311.38V200.17L295.93 177.32H292.19V204.86ZM323.92 204.86H326.67V179.79H333V177.32H317.59V179.79H323.92V204.86ZM336.45 204.86H339.2V179.79H344.01C346.56 179.79 348.08 180.08 349.39 180.82C351.2 181.89 352.39 183.94 352.39 186.08C352.39 188.22 351.16 190.35 349.23 191.38C347.75 192.16 346.68 192.33 343.07 192.37H341.96L351.29 204.86H354.74L346.97 194.59C351.74 194.3 355.15 190.81 355.15 186.21C355.15 182.55 353.01 179.39 349.64 178.11C348.32 177.58 346.23 177.33 343.43 177.33H336.44V204.87L336.45 204.86ZM359.59 177.32V194.5C359.59 197.71 360.25 200.05 361.64 201.86C363.28 204.04 366.04 205.35 368.95 205.35C371.86 205.35 374.62 204.03 376.31 201.86C377.67 200.05 378.32 197.71 378.32 194.5V177.32H375.57V194.5C375.57 199.56 373.06 202.68 368.95 202.68C364.84 202.68 362.33 199.56 362.33 194.5V177.32H359.58H359.59ZM384 204.86H386.75V180.37L397.07 204.86H399.41L409.81 180.37V204.86H412.56V177.32H408.29L398.26 200.75L388.23 177.32H384V204.86ZM428.84 204.86H431.59V179.79H436.4C438.95 179.79 440.47 180.08 441.78 180.82C443.59 181.89 444.78 183.94 444.78 186.08C444.78 188.22 443.55 190.35 441.62 191.38C440.14 192.16 439.07 192.33 435.46 192.37H434.35L443.68 204.86H447.13L439.36 194.59C444.13 194.3 447.54 190.81 447.54 186.21C447.54 182.55 445.4 179.39 442.03 178.11C440.71 177.58 438.62 177.33 435.83 177.33H428.84V204.87V204.86ZM465.05 176.83C457.12 176.83 450.46 183.28 450.46 190.93C450.46 198.58 456.95 205.36 465.09 205.36C473.23 205.36 479.64 198.91 479.64 191.1C479.64 183.29 473.06 176.84 465.05 176.84V176.83ZM465.05 179.3C471.54 179.3 476.89 184.64 476.89 191.14C476.89 197.64 471.51 202.89 465.1 202.89C458.69 202.89 453.22 197.59 453.22 191.01C453.22 184.43 458.64 179.3 465.06 179.3H465.05ZM480.71 204.86H497.77V202.39H483.84L497.36 179.79V177.32H481.13V179.79H494.24L480.72 202.39V204.86H480.71ZM507.3 204.86H510.88L516.92 182.3L523 204.86H526.53L534.42 177.32H531.59L524.81 201.28L518.23 177.32H515.64L509.02 201.32L502.28 177.32H499.44L507.29 204.86H507.3ZM550.53 176.83C542.6 176.83 535.94 183.28 535.94 190.93C535.94 198.58 542.43 205.36 550.57 205.36C558.71 205.36 565.12 198.91 565.12 191.1C565.12 183.29 558.54 176.84 550.53 176.84V176.83ZM550.53 179.3C557.02 179.3 562.37 184.64 562.37 191.14C562.37 197.64 556.99 202.89 550.57 202.89C544.15 202.89 538.69 197.59 538.69 191.01C538.69 184.43 544.11 179.3 550.53 179.3ZM581.07 177.32H578.32V196.72C578.32 198.4 578.24 199.23 577.99 200.01C577.37 201.78 575.77 202.89 573.84 202.89C571.25 202.89 569.24 201 569.03 198.33H566.32C566.57 202.48 569.57 205.36 573.76 205.36C576.47 205.36 578.94 204 580.17 201.83C580.87 200.6 581.07 199.36 581.07 196.73V177.33V177.32ZM586.45 177.32V194.5C586.45 197.71 587.11 200.05 588.5 201.86C590.14 204.04 592.9 205.35 595.82 205.35C598.74 205.35 601.49 204.03 603.18 201.86C604.54 200.05 605.19 197.71 605.19 194.5V177.32H602.44V194.5C602.44 199.56 599.93 202.68 595.82 202.68C591.71 202.68 589.2 199.56 589.2 194.5V177.32H586.45ZM621.18 204.86H636.26V202.39H623.93V192.16H635.85V189.69H623.93V179.79H636.26V177.32H621.18V204.86ZM641.19 204.86H649.25C652.91 204.86 655.78 204.16 658.04 202.72C661.99 200.25 664.45 195.77 664.45 191.13C664.45 186.49 662.03 182.09 658.16 179.58C655.86 178.14 652.61 177.32 649.08 177.32H641.19V204.86ZM643.95 202.39V179.79H647.94C651.93 179.79 654.43 180.36 656.61 181.76C659.9 183.86 661.71 187.18 661.71 191.05C661.71 194.54 660.27 197.58 657.64 199.76C655.26 201.73 652.83 202.39 647.94 202.39H643.95ZM668.65 177.32V194.5C668.65 197.71 669.31 200.05 670.7 201.86C672.34 204.04 675.1 205.35 678.01 205.35C680.92 205.35 683.68 204.03 685.37 201.86C686.73 200.05 687.38 197.71 687.38 194.5V177.32H684.63V194.5C684.63 199.56 682.12 202.68 678.01 202.68C673.9 202.68 671.39 199.56 671.39 194.5V177.32H668.64H668.65ZM693.06 204.86H695.81V197.3L699.38 192.94L708.59 204.86H712.04L701.15 190.76L712.04 177.32H708.51L695.81 193.14V177.32H693.06V204.86ZM712.66 204.86H715.54L719.57 195.57H732.39L736.38 204.86H739.38L727.54 177.32H724.46L712.67 204.86H712.66ZM720.59 193.11L726.02 180.45L731.32 193.11H720.59ZM763.87 197.63C762.84 199.03 762.1 199.77 761.08 200.55C759.15 201.99 756.52 202.89 754.17 202.89C748.01 202.89 742.58 197.38 742.58 191.14C742.58 184.9 747.96 179.3 754.17 179.3C757.99 179.3 761.65 181.23 763.75 184.36H766.83C766.17 182.84 765.06 181.48 763.17 179.96C760.62 177.95 757.5 176.84 754.17 176.84C746.16 176.84 739.83 183.13 739.83 191.1C739.83 199.07 746.24 205.36 754.25 205.36C759.51 205.36 764.36 202.4 766.95 197.63H763.87ZM783.52 177.32H780.77V196.72C780.77 198.4 780.69 199.23 780.44 200.01C779.82 201.78 778.22 202.89 776.29 202.89C773.7 202.89 771.69 201 771.48 198.33H768.77C769.02 202.48 772.02 205.36 776.21 205.36C778.92 205.36 781.39 204 782.62 201.83C783.32 200.6 783.52 199.36 783.52 196.73V177.33V177.32ZM789.15 204.86H791.9V177.32H789.15V204.86Z" fill="#808080"/>
<path d="M243.25 132.19H302.4V122.52H254.05V82.39H300.79V72.72H254.05V33.88H302.4V24.21H243.25V132.19ZM321.74 132.19H353.33C367.67 132.19 378.95 129.45 387.82 123.81C403.29 114.14 412.96 96.57 412.96 78.36C412.96 60.15 403.45 42.9 388.3 33.07C379.28 27.43 366.54 24.21 352.68 24.21H321.74V132.19ZM332.54 122.52V33.88H348.17C363.8 33.88 373.63 36.14 382.18 41.62C395.07 49.84 402.16 62.89 402.16 78.04C402.16 91.74 396.52 103.66 386.2 112.21C376.85 119.95 367.34 122.52 348.17 122.52H332.54ZM430.37 132.19H441.17V24.21H430.37V132.19ZM553.01 103.82C548.98 109.3 546.08 112.2 542.05 115.26C534.48 120.9 524.16 124.45 514.98 124.45C490.8 124.45 469.53 102.85 469.53 78.36C469.53 53.87 490.64 31.94 514.98 31.94C529.97 31.94 544.31 39.52 552.53 51.76H564.62C562.04 45.8 557.69 40.48 550.28 34.51C540.29 26.61 528.04 22.26 514.99 22.26C483.56 22.26 458.74 46.92 458.74 78.18C458.74 109.44 483.88 134.1 515.31 134.1C535.94 134.1 554.96 122.5 565.11 103.8H553.02L553.01 103.82ZM631.01 22.27C599.91 22.27 573.8 47.57 573.8 77.55C573.8 107.53 599.26 134.12 631.18 134.12C663.1 134.12 688.23 108.82 688.23 78.2C688.23 47.58 662.44 22.28 631.02 22.28L631.01 22.27ZM631.01 31.94C656.47 31.94 677.43 52.89 677.43 78.36C677.43 103.83 656.32 124.45 631.18 124.45C606.04 124.45 584.6 103.66 584.6 77.87C584.6 52.08 605.87 31.94 631.01 31.94ZM705.47 132.19H716.27V37.1L780.74 132.19H791.54V24.21H780.74V113.82L720.14 24.21H705.47V132.19Z" fill="#808080" stroke="#808080" stroke-width="2.95" stroke-miterlimit="22.93"/>
<path fill-rule="evenodd" clip-rule="evenodd" d="M239.53 158.2H793.24V156.15H239.53V158.2Z" fill="#808080"/>
</g>
<defs>
<clipPath id="clip0_2001_24055">
<rect width="793.24" height="205.35" fill="white"/>
</clipPath>
</defs>
</svg>
